<?xml version="1.0" encoding="utf-8"?>
<svg viewBox="-53.488 -634.2 316.058 899.469" xmlns="http://www.w3.org/2000/svg">
  <linearGradient id="ck" x1="136.42" x2="712.56" y1="779.63" y2="779.63" gradientTransform="matrix(0.548108, 0, 0, -0.548108, -127.988747, 242.766895)" gradientUnits="userSpaceOnUse">
    <stop stop-color="#BA8B01" offset="0"/>
    <stop stop-color="#CDAA37" offset="0.0438"/>
    <stop stop-color="#E8D886" offset="0.1121"/>
    <stop stop-color="#F8F4B8" offset="0.1607"/>
    <stop stop-color="#FFFFCB" offset="0.1847"/>
    <stop stop-color="#FFFFCB" offset="0.2986"/>
    <stop stop-color="#FDF9C1" offset="0.3078"/>
    <stop stop-color="#F5E6A0" offset="0.3415"/>
    <stop stop-color="#F0D989" offset="0.374"/>
    <stop stop-color="#EDD17B" offset="0.4043"/>
    <stop stop-color="#ECCE76" offset="0.4303"/>
    <stop stop-color="#A26F14" offset="0.4892"/>
    <stop stop-color="#A26F14" offset="0.6051"/>
    <stop stop-color="#A67418" offset="0.6074"/>
    <stop stop-color="#C19234" offset="0.624"/>
    <stop stop-color="#D4A848" offset="0.6402"/>
    <stop stop-color="#E0B654" offset="0.6558"/>
    <stop stop-color="#E4BA58" offset="0.6699"/>
    <stop stop-color="#D9A94D" offset="0.6716"/>
    <stop stop-color="#C38737" offset="0.6756"/>
    <stop stop-color="#B36F27" offset="0.6793"/>
    <stop stop-color="#A9601D" offset="0.6828"/>
    <stop stop-color="#A65B1A" offset="0.6857"/>
    <stop stop-color="#AA6222" offset="0.6954"/>
    <stop stop-color="#B57637" offset="0.7104"/>
    <stop stop-color="#C6965B" offset="0.7287"/>
    <stop stop-color="#DEC38B" offset="0.7498"/>
    <stop stop-color="#FDFCC9" offset="0.7728"/>
    <stop stop-color="#FFFFCD" offset="0.7741"/>
    <stop stop-color="#FFFFCD" offset="0.7957"/>
    <stop stop-color="#E5BD5D" offset="0.8468"/>
    <stop stop-color="#BB913B" offset="0.8861"/>
    <stop stop-color="#BB913B" offset="0.9116"/>
    <stop stop-color="#BE9337" offset="0.9147"/>
    <stop stop-color="#C39830" offset="0.925"/>
    <stop stop-color="#C5992E" offset="0.9509"/>
    <stop stop-color="#7F470A" offset="1"/>
  </linearGradient>
  <linearGradient id="bz" x1="424.49" x2="424.49" y1="-40.738" y2="1600" gradientTransform="matrix(0.548108, 0, 0, -0.548108, -128.250491, 242.967714)" gradientUnits="userSpaceOnUse">
    <stop stop-color="#BA8B01" offset="0"/>
    <stop stop-color="#CDAA37" offset="0.0438"/>
    <stop stop-color="#E8D886" offset="0.1121"/>
    <stop stop-color="#F8F4B8" offset="0.1607"/>
    <stop stop-color="#FFFFCB" offset="0.1847"/>
    <stop stop-color="#FFFFCB" offset="0.2986"/>
    <stop stop-color="#FDF9C1" offset="0.3078"/>
    <stop stop-color="#F5E6A0" offset="0.3415"/>
    <stop stop-color="#F0D989" offset="0.374"/>
    <stop stop-color="#EDD17B" offset="0.4043"/>
    <stop stop-color="#ECCE76" offset="0.4303"/>
    <stop stop-color="#A26F14" offset="0.4892"/>
    <stop stop-color="#A26F14" offset="0.6051"/>
    <stop stop-color="#A67418" offset="0.6074"/>
    <stop stop-color="#C19234" offset="0.624"/>
    <stop stop-color="#D4A848" offset="0.6402"/>
    <stop stop-color="#E0B654" offset="0.6558"/>
    <stop stop-color="#E4BA58" offset="0.6699"/>
    <stop stop-color="#D9A94D" offset="0.6716"/>
    <stop stop-color="#C38737" offset="0.6756"/>
    <stop stop-color="#B36F27" offset="0.6793"/>
    <stop stop-color="#A9601D" offset="0.6828"/>
    <stop stop-color="#A65B1A" offset="0.6857"/>
    <stop stop-color="#AA6222" offset="0.6954"/>
    <stop stop-color="#B57637" offset="0.7104"/>
    <stop stop-color="#C6965B" offset="0.7287"/>
    <stop stop-color="#DEC38B" offset="0.7498"/>
    <stop stop-color="#FDFCC9" offset="0.7728"/>
    <stop stop-color="#FFFFCD" offset="0.7741"/>
    <stop stop-color="#FFFFCD" offset="0.7957"/>
    <stop stop-color="#E5BD5D" offset="0.8468"/>
    <stop stop-color="#BB913B" offset="0.8861"/>
    <stop stop-color="#BB913B" offset="0.9116"/>
    <stop stop-color="#BE9337" offset="0.9147"/>
    <stop stop-color="#C39830" offset="0.925"/>
    <stop stop-color="#C5992E" offset="0.9509"/>
    <stop stop-color="#7F470A" offset="1"/>
  </linearGradient>
  <path d="M 166.933 -198.535 C 156.705 -200.106 146.88 -200.211 137.539 -199.087 C 132.997 -232.688 128.693 -264.521 124.947 -292.23 C 146.085 -311.38 166.419 -330.595 175.819 -342.02 C 218.678 -394.106 220.663 -438.753 224.241 -481.885 C 227.737 -524.007 217.857 -597.324 185.751 -630.378 C 183.667 -632.526 181.043 -633.491 178.41 -633.998 C 166.427 -636.307 142.027 -618.619 126.596 -591.232 C 84.798 -517.042 86.602 -453.491 98.278 -373.203 C 98.433 -372.137 99.203 -366.43 100.465 -357.021 C 39.202 -306.109 -44.881 -239.137 -52.682 -141.24 C -56.116 -98.162 -42.6 -45.714 -9.858 -7.147 C 18.383 26.115 65.591 55.083 111.814 57.747 C 127.296 58.64 141.865 57.659 155.391 55.063 C 161.383 99.947 165.561 131.131 166.212 135.666 C 185.465 269.973 60.491 254.5 43.899 224.779 C 54.698 225.758 96.957 224.468 99.328 181.368 C 102.006 132.707 51.994 107.319 17.64 136.936 C -26.982 175.399 5.026 276.604 104.623 263.997 C 150.744 258.159 195.91 225.445 184.31 146.445 C 183.998 144.328 178.827 106.179 171.374 51.105 C 225.658 34.478 259.632 -10.169 262.318 -63.541 C 266.479 -146.235 218.543 -190.614 166.933 -198.539 L 166.933 -198.535 Z M 111.754 -389.732 C 106.185 -430.399 112.302 -457.476 121.514 -484.465 C 131.757 -514.473 154.702 -558.386 182.62 -555.322 C 211.859 -552.114 209.504 -508.947 194.774 -472.1 C 187.166 -453.064 180.025 -435.02 145.938 -397.994 C 137.529 -388.861 126.756 -379.195 114.585 -368.85 C 113.013 -380.466 112.018 -387.811 111.755 -389.73 L 111.754 -389.732 Z M 107.743 42.335 C 75.099 41.946 36.301 22.966 12.909 -3.798 C -27.754 -51.168 -24.734 -104.579 -6.761 -147.019 C 9.231 -184.778 38.808 -216.083 79.586 -251.936 C 88.494 -259.767 99.437 -269.379 110.806 -279.523 C 114.136 -254.532 117.93 -226.051 121.936 -195.975 C 68.287 -180.784 35.032 -123.594 43.3 -73.808 C 50.432 -30.876 79.36 -5.93 105.474 -2.811 C 106.515 -2.686 110.847 -2.265 110.847 -2.265 C 110.847 -2.265 93.29 -18.913 87.752 -24.627 C 71.618 -41.276 61.047 -76.283 85.042 -109.558 C 96.515 -125.468 112.553 -134.536 129.712 -137.57 C 137.969 -75.565 146.428 -12.059 153.129 38.171 C 140.177 41.055 125.142 42.538 107.736 42.331 L 107.743 42.335 Z M 169.006 33.593 C 162.19 -16.779 153.872 -78.294 145.709 -138.675 C 186.018 -137.3 226.683 -105.222 225.817 -52.007 C 225.222 -15.32 211.165 18.26 169.006 33.593 L 169.006 33.593 Z" fill="url(#ck)" style=""/>
  <path d="M 175.89 -633.431 C 176.638 -633.431 177.353 -633.366 178.014 -633.239 C 181.107 -632.643 183.346 -631.544 185.058 -629.778 C 217.225 -596.667 226.839 -523.271 223.391 -481.724 C 223.245 -479.959 223.101 -478.192 222.957 -476.422 C 219.58 -434.912 216.088 -391.991 175.095 -342.171 C 167.062 -332.408 150.44 -316.141 124.28 -292.441 L 124.061 -292.243 L 124.101 -291.949 L 131.654 -236.083 L 136.693 -198.808 L 136.767 -198.259 L 137.317 -198.325 C 141.428 -198.82 145.633 -199.07 149.815 -199.07 C 155.329 -199.07 160.963 -198.635 166.558 -197.775 C 193.672 -193.613 217.912 -179.672 234.813 -158.52 C 244.087 -146.913 251.081 -133.294 255.601 -118.039 C 260.49 -101.538 262.464 -83.143 261.468 -63.363 C 258.743 -9.233 224.047 34.501 170.923 50.772 L 170.466 50.912 L 170.53 51.385 C 178.954 113.626 183.186 144.814 183.468 146.731 C 186.099 164.655 185.891 181.028 182.849 195.394 C 180.074 208.502 174.914 220.089 167.514 229.833 C 160.146 239.534 150.582 247.413 139.09 253.251 C 128.673 258.542 116.956 262.039 104.265 263.646 C 98.63 264.359 93.055 264.72 87.693 264.72 C 76.8 264.72 66.451 263.238 56.933 260.314 C 48.05 257.586 39.842 253.592 32.536 248.442 C 19.051 238.937 8.889 225.747 3.149 210.297 C -1.744 197.125 -3.048 183.34 -0.622 170.433 C 1.882 157.119 8.224 145.754 17.721 137.568 C 27.228 129.373 38.389 125.04 49.997 125.04 C 62.791 125.04 75.29 130.495 84.29 140.004 C 94.33 150.612 99.369 165.364 98.479 181.544 C 96.281 221.506 59.461 224.612 48.228 224.612 C 46.148 224.612 44.597 224.511 43.662 224.426 L 42.601 224.33 L 43.12 225.259 C 49.665 236.984 71.815 245.825 94.642 245.825 C 117.155 245.825 136.679 237.605 149.618 222.679 C 166.31 203.423 171.983 174.19 166.478 135.792 C 165.884 131.646 162.345 105.281 155.658 55.194 L 155.579 54.605 L 154.995 54.717 C 144.634 56.705 133.739 57.713 122.613 57.713 C 118.978 57.713 115.258 57.606 111.556 57.392 C 89.857 56.141 66.572 48.913 44.217 36.488 C 23.759 25.118 4.604 9.565 -9.719 -7.306 C -25.144 -25.475 -37.202 -48.004 -44.588 -72.458 C -51.465 -95.228 -54.17 -118.925 -52.411 -140.989 C -49.059 -183.031 -31.466 -222.952 1.375 -263.031 C 29.722 -297.625 64.419 -326.413 95.034 -351.812 C 96.886 -353.349 98.721 -354.87 100.535 -356.378 L 100.774 -356.577 L 100.733 -356.885 C 99.431 -366.597 98.695 -372.044 98.546 -373.074 C 93.389 -408.535 89.106 -446.545 92.656 -484.241 C 96.196 -521.844 107.045 -555.688 126.798 -590.743 C 133.521 -602.675 142.538 -613.683 152.189 -621.74 C 161.085 -629.168 169.723 -633.427 175.89 -633.427 M 113.874 -367.556 L 114.657 -368.222 C 129.047 -380.453 138.733 -389.456 146.059 -397.414 C 180.092 -434.378 187.295 -452.401 194.92 -471.48 L 195.004 -471.688 C 200.536 -485.529 204.079 -499.474 205.249 -512.017 C 206.526 -525.704 204.815 -536.912 200.303 -544.43 C 196.344 -551.024 190.317 -554.809 182.388 -555.679 C 181.448 -555.782 180.494 -555.834 179.552 -555.834 C 167.42 -555.834 155.339 -547.47 143.645 -530.971 C 134.973 -518.737 126.607 -501.779 120.69 -484.446 C 110.926 -455.837 105.526 -428.734 110.905 -389.455 C 111.168 -387.536 112.164 -380.191 113.736 -368.575 L 113.874 -367.557 M 110.647 43.114 C 126.232 43.114 140.47 41.704 152.965 38.923 L 153.468 38.811 L 153.4 38.3 C 146.648 -12.31 138.13 -76.267 129.983 -137.44 L 129.906 -138.021 L 129.328 -137.919 C 110.833 -134.649 95.263 -124.885 84.3 -109.683 C 59.183 -74.851 72.191 -39.376 87.062 -24.032 C 91.707 -19.24 104.944 -6.626 108.988 -2.781 C 107.645 -2.914 105.866 -3.093 105.254 -3.165 C 91.801 -4.772 78.353 -12.016 67.388 -23.564 C 55.102 -36.502 46.865 -53.838 43.566 -73.698 C 41.544 -85.88 41.963 -98.579 44.815 -111.442 C 47.609 -124.046 52.579 -136.133 59.588 -147.367 C 74.368 -171.06 96.462 -188.059 121.8 -195.233 L 122.269 -195.366 L 122.205 -195.848 C 118.199 -225.927 114.405 -254.408 111.074 -279.402 L 110.934 -280.453 L 110.143 -279.747 C 99.348 -270.115 88.78 -260.825 80.287 -253.359 L 78.926 -252.163 C 38.787 -216.878 8.716 -185.499 -7.567 -147.043 C -20.36 -116.837 -34.803 -57.987 12.198 -3.238 C 35.697 23.649 74.866 42.698 107.448 43.087 C 108.521 43.099 109.598 43.105 110.651 43.105 M 168.255 34.548 L 168.91 34.309 C 206.146 20.768 225.385 -8.207 226.093 -51.808 C 226.982 -106.653 185.202 -137.688 145.439 -139.043 L 144.774 -139.065 L 144.863 -138.405 C 153.026 -78.03 161.344 -16.509 168.16 33.862 L 168.254 34.553 M 175.893 -634.002 C 163.312 -634.002 140.837 -616.816 126.31 -591.034 C 84.512 -516.844 86.316 -453.293 97.992 -373.005 C 98.147 -371.939 98.917 -366.231 100.179 -356.822 C 38.915 -305.911 -45.167 -238.939 -52.968 -141.047 C -56.403 -97.97 -42.886 -45.522 -10.144 -6.954 C 18.097 26.308 65.305 55.276 111.528 57.94 C 115.278 58.156 118.976 58.263 122.617 58.263 C 134.008 58.263 144.856 57.223 155.105 55.256 C 161.097 100.14 165.275 131.324 165.926 135.859 C 177.962 219.823 133.626 245.25 94.647 245.25 C 71.277 245.25 49.834 236.113 43.615 224.973 C 44.805 225.081 46.376 225.161 48.232 225.161 C 63.237 225.161 96.934 219.917 99.044 181.562 C 100.934 147.217 76.575 124.464 50.001 124.464 C 38.924 124.464 27.464 128.416 17.358 137.128 C -24.674 173.358 1.302 265.269 87.698 265.269 C 93.021 265.269 98.559 264.921 104.34 264.19 C 150.461 258.352 195.628 225.637 184.027 146.638 C 183.716 144.52 178.544 106.371 171.09 51.298 C 225.375 34.67 259.348 -9.977 262.035 -63.349 C 266.198 -146.037 218.261 -190.422 166.65 -198.347 C 160.909 -199.228 155.294 -199.648 149.821 -199.648 C 145.544 -199.648 141.354 -199.391 137.257 -198.898 C 132.714 -232.499 128.41 -264.332 124.665 -292.041 C 145.803 -311.191 166.136 -330.407 175.537 -341.831 C 218.395 -393.917 220.379 -438.565 223.959 -481.696 C 227.454 -523.819 217.574 -597.135 185.468 -630.189 C 183.384 -632.336 180.76 -633.302 178.127 -633.809 C 177.425 -633.944 176.679 -634.011 175.896 -634.011 L 175.893 -634.002 Z M 114.298 -368.66 C 112.726 -380.276 111.731 -387.621 111.468 -389.54 C 105.898 -430.207 112.016 -457.284 121.227 -484.273 C 131.129 -513.281 152.9 -555.282 179.556 -555.282 C 180.475 -555.282 181.4 -555.232 182.331 -555.13 C 211.571 -551.922 209.216 -508.755 194.485 -471.908 C 186.877 -452.871 179.736 -434.828 145.649 -397.802 C 137.241 -388.668 126.468 -379.002 114.297 -368.657 L 114.298 -368.66 Z M 110.652 42.545 C 109.595 42.545 108.532 42.539 107.456 42.526 C 74.812 42.136 36.015 23.157 12.622 -3.608 C -28.041 -50.978 -25.021 -104.388 -7.048 -146.828 C 8.944 -184.588 38.521 -215.892 79.299 -251.745 C 88.207 -259.576 99.15 -269.189 110.519 -279.332 C 113.849 -254.342 117.643 -225.86 121.649 -195.784 C 68 -180.593 34.745 -123.404 43.013 -73.618 C 50.145 -30.686 79.073 -5.739 105.186 -2.62 C 106.228 -2.496 110.56 -2.075 110.56 -2.075 C 110.56 -2.075 93.002 -18.723 87.464 -24.436 C 71.33 -41.086 60.76 -76.092 84.754 -109.367 C 96.228 -125.278 112.266 -134.345 129.425 -137.379 C 137.682 -75.374 146.14 -11.868 152.842 38.362 C 140.691 41.067 126.703 42.54 110.646 42.54 L 110.652 42.545 Z M 168.717 33.783 C 161.901 -16.588 153.583 -78.103 145.42 -138.484 C 185.729 -137.11 226.394 -105.032 225.528 -51.816 C 224.933 -15.129 210.876 18.451 168.717 33.783 L 168.717 33.783 Z" fill="url(#bz)" style=""/>
</svg>