<svg id="visual" viewBox="0 0 1280 720" width="100%" preserveAspectRatio="none" xmlns="http://www.w3.org/2000/svg" xmlns:xlink="http://www.w3.org/1999/xlink" version="1.1"><rect x="0" y="0" width="1280" height="720" fill="#202020"></rect><path d="M0 279L53.3 293.3C106.7 307.7 213.3 336.3 320 342.5C426.7 348.7 533.3 332.3 640 326.8C746.7 321.3 853.3 326.7 960 334.8C1066.7 343 1173.3 354 1226.7 359.5L1280 365L1280 721L1226.7 721C1173.3 721 1066.7 721 960 721C853.3 721 746.7 721 640 721C533.3 721 426.7 721 320 721C213.3 721 106.7 721 53.3 721L0 721Z" fill="#252525"></path><path d="M0 493L53.3 503.3C106.7 513.7 213.3 534.3 320 531.8C426.7 529.3 533.3 503.7 640 489.3C746.7 475 853.3 472 960 459C1066.7 446 1173.3 423 1226.7 411.5L1280 400L1280 721L1226.7 721C1173.3 721 1066.7 721 960 721C853.3 721 746.7 721 640 721C533.3 721 426.7 721 320 721C213.3 721 106.7 721 53.3 721L0 721Z" fill="#2a2a2a"></path><path d="M0 654L53.3 633.5C106.7 613 213.3 572 320 573C426.7 574 533.3 617 640 622.2C746.7 627.3 853.3 594.7 960 590C1066.7 585.3 1173.3 608.7 1226.7 620.3L1280 632L1280 721L1226.7 721C1173.3 721 1066.7 721 960 721C853.3 721 746.7 721 640 721C533.3 721 426.7 721 320 721C213.3 721 106.7 721 53.3 721L0 721Z" fill="#303030"></path></svg>