<svg id="visual" viewBox="0 0 450 900" width="100%" preserveAspectRatio="none" xmlns="http://www.w3.org/2000/svg" xmlns:xlink="http://www.w3.org/1999/xlink" version="1.1"><rect x="0" y="0" width="450" height="900" fill="#0a0a0a"></rect><path d="M0 415L37.5 425.7C75 436.3 150 457.7 225 454C300 450.3 375 421.7 412.5 407.3L450 393L450 901L412.5 901C375 901 300 901 225 901C150 901 75 901 37.5 901L0 901Z" fill="#101010"></path><path d="M0 462L37.5 485.3C75 508.7 150 555.3 225 583C300 610.7 375 619.3 412.5 623.7L450 628L450 901L412.5 901C375 901 300 901 225 901C150 901 75 901 37.5 901L0 901Z" fill="#151515"></path><path d="M0 626L37.5 630.3C75 634.7 150 643.3 225 643.5C300 643.7 375 635.3 412.5 631.2L450 627L450 901L412.5 901C375 901 300 901 225 901C150 901 75 901 37.5 901L0 901Z" fill="#1a1a1a"></path></svg>